<svg width="1400" height="732" viewBox="0 0 1400 732" fill="none" xmlns="http://www.w3.org/2000/svg">
<rect width="1400" height="732" fill="#FFFFF8"/>
<path d="M703.756 287.122C703.756 267.198 711.671 248.091 725.759 234.003C739.847 219.915 758.954 212 778.878 212C798.802 212 817.909 219.915 831.997 234.003C846.085 248.091 854 267.198 854 287.122C854 307.046 846.085 326.153 831.997 340.241C817.909 354.329 798.802 362.244 778.878 362.244C758.954 362.244 739.847 354.329 725.759 340.241C711.671 326.153 703.756 307.046 703.756 287.122ZM546 243.512C546 230.257 556.745 219.512 570 219.512H657.22C670.474 219.512 681.22 230.257 681.22 243.512V330.732C681.22 343.987 670.474 354.732 657.22 354.732H570C556.745 354.732 546 343.987 546 330.732V243.512ZM546 408.78C546 395.526 556.745 384.78 570 384.78H657.22C670.474 384.78 681.22 395.526 681.22 408.78V496C681.22 509.255 670.474 520 657.22 520H570C556.745 520 546 509.255 546 496V408.78ZM711.268 408.78C711.268 395.526 722.013 384.78 735.268 384.78H822.488C835.743 384.78 846.488 395.526 846.488 408.78V496C846.488 509.255 835.743 520 822.488 520H735.268C722.013 520 711.268 509.255 711.268 496V408.78Z" fill="#F5B354"/>
</svg>
