<svg width="1400" height="732" viewBox="0 0 1400 732" fill="none" xmlns="http://www.w3.org/2000/svg">
<rect width="1400" height="732" fill="#FFFFF8"/>
<path fill-rule="evenodd" clip-rule="evenodd" d="M615.546 212C606.839 212 598.276 214.214 590.661 218.435C583.046 222.656 576.63 228.744 572.015 236.127L502.202 347.862C498.802 353.301 497 359.586 497 366C497 372.414 498.802 378.699 502.202 384.138L572.015 495.873C576.63 503.256 583.046 509.344 590.661 513.565C598.276 517.786 606.839 520 615.546 520H801.92C815.535 520 828.591 514.592 838.218 504.965C847.845 495.338 853.253 482.281 853.253 468.667V263.333C853.253 249.719 847.845 236.662 838.218 227.035C828.591 217.408 815.535 212 801.92 212H615.546ZM759.741 426.505C756.532 429.713 752.181 431.515 747.644 431.515C743.106 431.515 738.755 429.713 735.546 426.505L699.253 390.195L662.961 426.505C659.75 429.716 655.395 431.519 650.855 431.519C646.314 431.519 641.959 429.716 638.749 426.505C635.538 423.294 633.734 418.939 633.734 414.399C633.734 409.858 635.538 405.503 638.749 402.293L675.058 366L638.749 329.707C635.538 326.497 633.734 322.142 633.734 317.601C633.734 313.061 635.538 308.706 638.749 305.495C641.959 302.284 646.314 300.481 650.855 300.481C655.395 300.481 659.75 302.284 662.961 305.495L699.253 341.805L735.546 305.495C737.136 303.906 739.023 302.646 741.1 301.787C743.176 300.928 745.402 300.486 747.65 300.487C749.897 300.487 752.123 300.931 754.199 301.792C756.275 302.653 758.161 303.914 759.75 305.504C761.338 307.093 762.598 308.981 763.458 311.057C764.317 313.134 764.759 315.36 764.758 317.607C764.757 319.855 764.314 322.08 763.453 324.156C762.592 326.232 761.331 328.119 759.741 329.707L723.466 366L759.741 402.293C761.332 403.882 762.594 405.769 763.455 407.846C764.316 409.923 764.76 412.15 764.76 414.399C764.76 416.647 764.316 418.874 763.455 420.951C762.594 423.029 761.332 424.916 759.741 426.505Z" fill="#F5B354"/>
</svg>
