<svg width="1400" height="732" viewBox="0 0 1400 732" fill="none" xmlns="http://www.w3.org/2000/svg">
<rect width="1400" height="732" fill="#FFFFF8"/>
<path d="M826.444 508V476.444C826.444 459.706 819.795 443.654 807.96 431.818C796.124 419.983 780.071 413.333 763.333 413.333H747.556C743.371 413.333 739.358 411.671 736.399 408.712C733.44 405.753 731.778 401.74 731.778 397.556V318.667C731.778 310.298 728.453 302.271 722.535 296.354C716.618 290.436 708.591 287.111 700.222 287.111C691.853 287.111 683.827 290.436 677.909 296.354C671.991 302.271 668.667 310.298 668.667 318.667V460.667L630.8 410.178C627.861 406.259 624.049 403.078 619.668 400.887C615.286 398.696 610.454 397.556 605.556 397.556H598.708C585.06 397.556 574 408.616 574 422.264C574 426.744 575.215 431.146 577.518 434.98L621.333 508M700.222 239.778V224M794.889 334.444H810.667M589.778 334.444H605.556M626.745 260.967L615.59 249.812M773.699 260.967L784.854 249.812" stroke="#F5B354" stroke-width="24.6065" stroke-linecap="round" stroke-linejoin="round"/>
</svg>
