<svg width="1400" height="732" viewBox="0 0 1400 732" fill="none" xmlns="http://www.w3.org/2000/svg">
<rect width="1400" height="732" fill="#FFFFF8"/>
<path d="M842 366H558M771 224H806.5C815.915 224 824.945 227.74 831.602 234.398C838.26 241.055 842 250.085 842 259.5V295M629 508H593.5C584.085 508 575.055 504.26 568.398 497.602C561.74 490.945 558 481.915 558 472.5V437M842 437V472.5C842 481.915 838.26 490.945 831.602 497.602C824.945 504.26 815.915 508 806.5 508H771M558 295V259.5C558 250.085 561.74 241.055 568.398 234.398C575.055 227.74 584.085 224 593.5 224H629" stroke="#F5B354" stroke-width="24" stroke-linecap="round" stroke-linejoin="round"/>
</svg>
