<svg width="1400" height="732" viewBox="0 0 1400 732" fill="none" xmlns="http://www.w3.org/2000/svg">
<rect width="1400" height="732" fill="#FFFFF8"/>
<path fill-rule="evenodd" clip-rule="evenodd" d="M622.5 212C612.289 212 602.497 216.056 595.276 223.276C588.056 230.497 584 240.289 584 250.5V481.5C584 491.711 588.056 501.503 595.276 508.724C602.497 515.944 612.289 520 622.5 520H776.5C786.711 520 796.503 515.944 803.724 508.724C810.944 501.503 815 491.711 815 481.5V250.5C815 240.289 810.944 230.497 803.724 223.276C796.503 216.056 786.711 212 776.5 212H622.5ZM699.5 481.5C704.605 481.5 709.502 479.472 713.112 475.862C716.722 472.252 718.75 467.355 718.75 462.25C718.75 457.145 716.722 452.248 713.112 448.638C709.502 445.028 704.605 443 699.5 443C694.395 443 689.498 445.028 685.888 448.638C682.278 452.248 680.25 457.145 680.25 462.25C680.25 467.355 682.278 472.252 685.888 475.862C689.498 479.472 694.395 481.5 699.5 481.5Z" fill="#F5B354"/>
<path d="M904 329L860.915 294.053C859.928 293.253 859.928 291.747 860.915 290.947L904 256" stroke="#F5B354" stroke-width="24" stroke-linecap="round"/>
<path d="M495 329.25L538.085 294.303C539.072 293.503 539.072 291.997 538.085 291.197L495 256.25" stroke="#F5B354" stroke-width="24" stroke-linecap="round"/>
<path d="M904 329L860.915 363.947C859.928 364.747 859.928 366.253 860.915 367.053L902.085 400.447C903.072 401.247 903.072 402.753 902.085 403.553L860.915 436.947C859.928 437.747 859.928 439.253 860.915 440.053L904 475" stroke="#F5B354" stroke-width="24" stroke-linecap="round"/>
<path d="M495 329.25L538.085 364.197C539.072 364.997 539.072 366.503 538.085 367.303L496.915 400.697C495.928 401.497 495.928 403.003 496.915 403.803L538.085 437.197C539.072 437.997 539.072 439.503 538.085 440.303L495 475.25" stroke="#F5B354" stroke-width="24" stroke-linecap="round"/>
</svg>
