<svg width="1400" height="732" viewBox="0 0 1400 732" fill="none" xmlns="http://www.w3.org/2000/svg">
<rect width="1400" height="732" fill="#FFFFF8"/>
<path d="M621.111 224H589.556C581.187 224 573.16 227.325 567.242 233.242C561.325 239.16 558 247.187 558 255.556V287.111M778.889 224H810.444C818.813 224 826.84 227.325 832.758 233.242C838.675 239.16 842 247.187 842 255.556V287.111M763.111 302.889V334.444M636.889 302.889V334.444M652.667 429.111C652.667 429.111 668.444 444.889 700 444.889C731.556 444.889 747.333 429.111 747.333 429.111M700 302.889V381.778H684.222M621.111 508H589.556C581.187 508 573.16 504.675 567.242 498.758C561.325 492.84 558 484.813 558 476.444V444.889M778.889 508H810.444C818.813 508 826.84 504.675 832.758 498.758C838.675 492.84 842 484.813 842 476.444V444.889" stroke="#F5B354" stroke-width="24" stroke-linecap="round" stroke-linejoin="round"/>
</svg>
