<svg width="1400" height="732" viewBox="0 0 1400 732" fill="none" xmlns="http://www.w3.org/2000/svg">
<rect width="1400" height="732" fill="#FFFFF8"/>
<path d="M546 297.5V263.25C546 254.166 549.608 245.455 556.032 239.032C562.455 232.608 571.166 229 580.25 229H820C829.084 229 837.795 232.608 844.218 239.032C850.642 245.455 854.25 254.166 854.25 263.25V297.5M546 297.5V468.75C546 477.834 549.608 486.545 556.032 492.968C562.455 499.392 571.166 503 580.25 503H820C829.084 503 837.795 499.392 844.218 492.968C850.642 486.545 854.25 477.834 854.25 468.75V297.5M546 297.5H854.25" stroke="#F5B354" stroke-width="34.25" stroke-linecap="round" stroke-linejoin="bevel"/>
<path d="M546 263.25C546 254.166 549.608 245.455 556.032 239.032C562.455 232.608 571.166 229 580.25 229H820C829.084 229 837.795 232.608 844.218 239.032C850.642 245.455 854.25 254.166 854.25 263.25V297.5H546V263.25Z" fill="#F5B354"/>
<rect x="572" y="251" width="36" height="36" rx="18" fill="#FFFFF8"/>
<rect x="624" y="251" width="36" height="36" rx="18" fill="#FFFFF8"/>
<rect x="676" y="251" width="36" height="36" rx="18" fill="#FFFFF8"/>
</svg>
