<svg width="1400" height="732" viewBox="0 0 1400 732" fill="none" xmlns="http://www.w3.org/2000/svg">
<rect width="1400" height="732" fill="#FFFFF8"/>
<path d="M764.13 234H782.5C792.711 234 802.503 238.056 809.724 245.276C816.944 252.497 821 262.289 821 272.5V481.5C821 491.711 816.944 501.503 809.724 508.724C802.503 515.944 792.711 520 782.5 520H617.5C607.289 520 597.497 515.944 590.276 508.724C583.056 501.503 579 491.711 579 481.5V272.5C579 262.289 583.056 252.497 590.276 245.276C597.497 238.056 607.289 234 617.5 234H635.87C638.146 227.563 642.362 221.991 647.937 218.051C653.513 214.11 660.173 211.996 667 212H733C747.366 212 759.598 221.185 764.13 234ZM733 234H667C664.083 234 661.285 235.159 659.222 237.222C657.159 239.285 656 242.083 656 245C656 247.917 657.159 250.715 659.222 252.778C661.285 254.841 664.083 256 667 256H733C735.917 256 738.715 254.841 740.778 252.778C742.841 250.715 744 247.917 744 245C744 242.083 742.841 239.285 740.778 237.222C738.715 235.159 735.917 234 733 234ZM645 322C642.083 322 639.285 323.159 637.222 325.222C635.159 327.285 634 330.083 634 333C634 335.917 635.159 338.715 637.222 340.778C639.285 342.841 642.083 344 645 344H755C757.917 344 760.715 342.841 762.778 340.778C764.841 338.715 766 335.917 766 333C766 330.083 764.841 327.285 762.778 325.222C760.715 323.159 757.917 322 755 322H645ZM634 388C634 390.917 635.159 393.715 637.222 395.778C639.285 397.841 642.083 399 645 399H700C702.917 399 705.715 397.841 707.778 395.778C709.841 393.715 711 390.917 711 388C711 385.083 709.841 382.285 707.778 380.222C705.715 378.159 702.917 377 700 377H645C642.083 377 639.285 378.159 637.222 380.222C635.159 382.285 634 385.083 634 388ZM645 432C642.083 432 639.285 433.159 637.222 435.222C635.159 437.285 634 440.083 634 443C634 445.917 635.159 448.715 637.222 450.778C639.285 452.841 642.083 454 645 454H733C735.917 454 738.715 452.841 740.778 450.778C742.841 448.715 744 445.917 744 443C744 440.083 742.841 437.285 740.778 435.222C738.715 433.159 735.917 432 733 432H645Z" fill="#F5B354"/>
</svg>
