<svg width="1400" height="732" viewBox="0 0 1400 732" fill="none" xmlns="http://www.w3.org/2000/svg">
<rect width="1400" height="732" fill="#FFFFF8"/>
<path fill-rule="evenodd" clip-rule="evenodd" d="M622.5 212C612.289 212 602.497 216.056 595.276 223.276C588.056 230.497 584 240.289 584 250.5V481.5C584 491.711 588.056 501.503 595.276 508.724C602.497 515.944 612.289 520 622.5 520H776.5C786.711 520 796.503 515.944 803.724 508.724C810.944 501.503 815 491.711 815 481.5V250.5C815 240.289 810.944 230.497 803.724 223.276C796.503 216.056 786.711 212 776.5 212H622.5ZM699.5 481.5C704.605 481.5 709.502 479.472 713.112 475.862C716.722 472.252 718.75 467.355 718.75 462.25C718.75 457.145 716.722 452.248 713.112 448.638C709.502 445.028 704.605 443 699.5 443C694.395 443 689.498 445.028 685.888 448.638C682.278 452.248 680.25 457.145 680.25 462.25C680.25 467.355 682.278 472.252 685.888 475.862C689.498 479.472 694.395 481.5 699.5 481.5Z" fill="#F5B354"/>
</svg>
