<svg width="1400" height="732" viewBox="0 0 1400 732" fill="none" xmlns="http://www.w3.org/2000/svg">
<path d="M716.605 212C721.133 212 725.183 214.818 726.708 219.038L737.58 249.175C741.471 250.14 744.828 251.126 747.651 252.132C750.731 253.231 754.735 254.925 759.663 257.214L784.981 243.816C787.046 242.716 789.413 242.318 791.724 242.682C794.036 243.046 796.166 244.152 797.793 245.833L820.061 268.856C823.018 271.921 823.85 276.402 822.187 280.314L810.313 308.141C812.274 311.755 813.855 314.856 815.057 317.443C816.35 320.246 817.952 324.147 819.861 329.147L847.535 341.005C851.693 342.776 854.265 346.934 853.987 351.384L851.955 383.339C851.816 385.415 851.07 387.404 849.811 389.06C848.552 390.717 846.834 391.967 844.871 392.656L818.66 401.973C817.911 405.586 817.12 408.697 816.289 411.305C814.943 415.346 813.411 419.324 811.699 423.224L824.866 452.33C825.803 454.374 826.057 456.665 825.591 458.864C825.125 461.063 823.964 463.054 822.279 464.542L797.239 486.903C795.593 488.375 793.535 489.306 791.342 489.571C789.15 489.835 786.929 489.42 784.981 488.381L759.17 474.706C755.136 476.853 750.97 478.74 746.697 480.358L735.424 484.577L725.414 512.297C724.665 514.322 723.325 516.076 721.568 517.331C719.81 518.586 717.717 519.284 715.558 519.335L686.298 519.997C684.082 520.049 681.903 519.415 680.059 518.183C678.216 516.951 676.797 515.181 675.996 513.113L664.2 481.898C660.176 480.519 656.191 479.03 652.249 477.432C649.026 476.037 645.852 474.532 642.732 472.92L613.472 485.424C611.545 486.251 609.419 486.497 607.354 486.133C605.289 485.77 603.374 484.811 601.846 483.376L580.193 463.064C578.575 461.562 577.473 459.587 577.045 457.422C576.616 455.256 576.882 453.011 577.806 451.006L590.388 423.594C588.721 420.344 587.169 417.036 585.737 413.676C584.069 409.562 582.528 405.397 581.117 401.187L553.552 392.794C551.311 392.117 549.357 390.719 547.992 388.817C546.628 386.915 545.929 384.616 546.006 382.276L547.084 352.693C547.164 350.764 547.768 348.893 548.832 347.281C549.895 345.669 551.378 344.378 553.12 343.546L582.041 329.655C583.376 324.747 584.557 320.908 585.583 318.136C587.036 314.413 588.65 310.755 590.419 307.171L577.883 280.683C576.925 278.673 576.632 276.41 577.047 274.222C577.463 272.035 578.565 270.036 580.193 268.517L601.815 248.097C603.328 246.664 605.225 245.701 607.275 245.324C609.325 244.947 611.44 245.172 613.365 245.972L642.594 258.046C645.817 255.9 648.753 254.134 651.402 252.748C654.554 251.085 658.784 249.309 664.092 247.42L674.256 219.069C675.015 216.999 676.39 215.211 678.196 213.947C680.003 212.683 682.153 212.004 684.358 212H716.605ZM700.374 320.092C674.702 320.092 653.897 340.65 653.897 366.029C653.897 391.408 674.702 411.983 700.374 411.983C726.045 411.983 746.835 391.408 746.835 366.029C746.835 340.65 726.045 320.092 700.374 320.092Z" fill="#F5B354"/>
<path d="M716.605 212C721.133 212 725.183 214.818 726.708 219.038L737.58 249.175C741.471 250.14 744.828 251.126 747.651 252.132C750.731 253.231 754.735 254.925 759.663 257.214L784.981 243.816C787.046 242.716 789.413 242.318 791.724 242.682C794.036 243.046 796.166 244.152 797.793 245.833L820.061 268.856C823.018 271.921 823.85 276.402 822.187 280.314L810.313 308.141C812.274 311.755 813.855 314.856 815.057 317.443C816.35 320.246 817.952 324.147 819.861 329.147L847.535 341.005C851.693 342.776 854.265 346.934 853.987 351.384L851.955 383.339C851.816 385.415 851.07 387.404 849.811 389.06C848.552 390.717 846.834 391.967 844.871 392.656L818.66 401.973C817.911 405.586 817.12 408.697 816.289 411.305C814.943 415.346 813.411 419.324 811.699 423.224L824.866 452.33C825.803 454.374 826.057 456.665 825.591 458.864C825.125 461.063 823.964 463.054 822.279 464.542L797.239 486.903C795.593 488.375 793.535 489.306 791.342 489.571C789.15 489.835 786.929 489.42 784.981 488.381L759.17 474.706C755.136 476.853 750.97 478.74 746.697 480.358L735.424 484.577L725.414 512.297C724.665 514.322 723.325 516.076 721.568 517.331C719.81 518.586 717.717 519.284 715.558 519.335L686.298 519.997C684.082 520.049 681.903 519.415 680.059 518.183C678.216 516.951 676.797 515.181 675.996 513.113L664.2 481.898C660.176 480.519 656.191 479.03 652.249 477.432C649.026 476.037 645.852 474.532 642.732 472.92L613.472 485.424C611.545 486.251 609.419 486.497 607.354 486.133C605.289 485.77 603.374 484.811 601.846 483.376L580.193 463.064C578.575 461.562 577.473 459.587 577.045 457.422C576.616 455.256 576.882 453.011 577.806 451.006L590.388 423.594C588.721 420.344 587.169 417.036 585.737 413.676C584.069 409.562 582.528 405.397 581.117 401.187L553.552 392.794C551.311 392.117 549.357 390.719 547.992 388.817C546.628 386.915 545.929 384.616 546.006 382.276L547.084 352.693C547.164 350.764 547.768 348.893 548.832 347.281C549.895 345.669 551.378 344.378 553.12 343.546L582.041 329.655C583.376 324.747 584.557 320.908 585.583 318.136C587.036 314.413 588.65 310.755 590.419 307.171L577.883 280.683C576.925 278.673 576.632 276.41 577.047 274.222C577.463 272.035 578.565 270.036 580.193 268.517L601.815 248.097C603.328 246.664 605.225 245.701 607.275 245.324C609.325 244.947 611.44 245.172 613.365 245.972L642.594 258.046C645.817 255.9 648.753 254.134 651.402 252.748C654.554 251.085 658.784 249.309 664.092 247.42L674.256 219.069C675.015 216.999 676.39 215.211 678.196 213.947C680.003 212.683 682.153 212.004 684.358 212H716.605ZM700.374 320.092C674.702 320.092 653.897 340.65 653.897 366.029C653.897 391.408 674.702 411.983 700.374 411.983C726.045 411.983 746.835 391.408 746.835 366.029C746.835 340.65 726.045 320.092 700.374 320.092Z" fill="#F5B354"/>
<rect width="1400" height="732" fill="#FFFFF8"/>
<path d="M832.417 216.3C836.523 212.386 842.491 210.974 848.009 212.771C854.297 214.888 858.532 220.792 858.532 227.401V347.328C858.532 431.514 789.168 499.467 705.303 499.467C655.895 499.467 613.288 467.704 597.824 423.301C575.109 443.064 560.8 472.132 560.8 504.6C560.8 513.134 553.934 520 545.4 520C536.866 520 530 513.134 530 504.6C530 456.539 554.512 414.189 591.664 389.293C614.315 374.15 641.329 366 668.6 366H719.933C728.467 366 735.333 359.135 735.333 350.6C735.333 342.066 728.467 335.201 719.933 335.201H668.6C643.126 335.201 618.999 340.847 597.375 350.921C612.326 306.005 654.611 273.601 704.533 273.601C747.139 273.601 778.838 259.42 799.948 245.367C812.268 237.154 822.728 227.337 832.481 216.3H832.417Z" fill="#F5B354"/>
</svg>
