<svg width="1400" height="732" viewBox="0 0 1400 732" fill="none" xmlns="http://www.w3.org/2000/svg">
<rect width="1400" height="732" fill="#FFFFF8"/>
<path d="M651.558 448.289L575.633 372.363C572.118 368.849 572.118 363.15 575.633 359.635L651.558 283.71C653.513 281.779 655.065 279.479 656.124 276.944C657.183 274.408 657.729 271.688 657.729 268.94C657.729 266.193 657.183 263.472 656.124 260.937C655.065 258.401 653.513 256.102 651.558 254.17C649.627 252.216 647.327 250.664 644.792 249.605C642.257 248.545 639.536 248 636.788 248C634.041 248 631.32 248.545 628.785 249.605C626.25 250.664 623.95 252.216 622.019 254.17L525.171 351.019C523.214 352.971 521.663 355.289 520.604 357.842C519.545 360.394 519 363.13 519 365.894C519 368.657 519.545 371.394 520.604 373.946C521.663 376.499 523.214 378.817 525.171 380.769L622.019 477.828C630.248 486.057 643.329 486.057 651.558 477.828C653.513 475.897 655.065 473.597 656.124 471.062C657.183 468.527 657.729 465.806 657.729 463.058C657.729 460.311 657.183 457.59 656.124 455.055C655.065 452.52 653.513 450.22 651.558 448.289Z" fill="#F5B354"/>
<path d="M825.128 372.363L749.203 448.289C747.248 450.22 745.696 452.52 744.637 455.055C743.578 457.59 743.032 460.311 743.032 463.058C743.032 465.806 743.578 468.527 744.637 471.062C745.696 473.597 747.248 475.897 749.203 477.828C751.134 479.783 753.434 481.335 755.969 482.394C758.504 483.453 761.225 483.999 763.972 483.999C766.72 483.999 769.441 483.453 771.976 482.394C774.511 481.335 776.811 479.783 778.742 477.828L875.59 380.769C883.819 372.54 883.819 359.247 875.59 351.019L778.742 254.17C776.811 252.216 774.511 250.664 771.976 249.605C769.441 248.545 766.72 248 763.972 248C761.225 248 758.504 248.545 755.969 249.605C753.434 250.664 751.134 252.216 749.203 254.17C747.248 256.102 745.696 258.401 744.637 260.937C743.578 263.472 743.032 266.193 743.032 268.94C743.032 271.688 743.578 274.408 744.637 276.944C745.696 279.479 747.248 281.779 749.203 283.71L825.128 359.635C828.643 363.15 828.643 368.849 825.128 372.363Z" fill="#F5B354"/>
</svg>
