<svg width="1400" height="732" viewBox="0 0 1400 732" fill="none" xmlns="http://www.w3.org/2000/svg">
<rect width="1400" height="732" fill="#FFFFF8"/>
<path d="M714.944 240.444C714.944 244.541 713.317 248.469 710.421 251.365C707.524 254.262 703.596 255.889 699.5 255.889C695.404 255.889 691.476 254.262 688.579 251.365C685.683 248.469 684.056 244.541 684.056 240.444C684.056 236.348 685.683 232.42 688.579 229.524C691.476 226.627 695.404 225 699.5 225C703.596 225 707.524 226.627 710.421 229.524C713.317 232.42 714.944 236.348 714.944 240.444ZM627.529 276.584C627.529 280.681 625.902 284.609 623.005 287.505C620.109 290.402 616.181 292.029 612.084 292.029C607.988 292.029 604.06 290.402 601.164 287.505C598.267 284.609 596.64 280.681 596.64 276.584C596.64 272.488 598.267 268.56 601.164 265.664C604.06 262.767 607.988 261.14 612.084 261.14C616.181 261.14 620.109 262.767 623.005 265.664C625.902 268.56 627.529 272.488 627.529 276.584ZM802.36 276.584C802.36 280.681 800.733 284.609 797.836 287.505C794.94 290.402 791.012 292.029 786.916 292.029C782.819 292.029 778.891 290.402 775.995 287.505C773.098 284.609 771.471 280.681 771.471 276.584C771.471 272.488 773.098 268.56 775.995 265.664C778.891 262.767 782.819 261.14 786.916 261.14C791.012 261.14 794.94 262.767 797.836 265.664C800.733 268.56 802.36 272.488 802.36 276.584ZM802.36 451.416C802.36 455.512 800.733 459.44 797.836 462.336C794.94 465.233 791.012 466.86 786.916 466.86C782.819 466.86 778.891 465.233 775.995 462.336C773.098 459.44 771.471 455.512 771.471 451.416C771.471 447.319 773.098 443.391 775.995 440.495C778.891 437.598 782.819 435.971 786.916 435.971C791.012 435.971 794.94 437.598 797.836 440.495C800.733 443.391 802.36 447.319 802.36 451.416ZM627.529 451.416C627.529 455.512 625.902 459.44 623.005 462.336C620.109 465.233 616.181 466.86 612.084 466.86C607.988 466.86 604.06 465.233 601.164 462.336C598.267 459.44 596.64 455.512 596.64 451.416C596.64 447.319 598.267 443.391 601.164 440.495C604.06 437.598 607.988 435.971 612.084 435.971C616.181 435.971 620.109 437.598 623.005 440.495C625.902 443.391 627.529 447.319 627.529 451.416ZM838.5 364C838.5 368.096 836.873 372.024 833.976 374.921C831.08 377.817 827.152 379.444 823.056 379.444C818.959 379.444 815.031 377.817 812.135 374.921C809.238 372.024 807.611 368.096 807.611 364C807.611 359.904 809.238 355.976 812.135 353.079C815.031 350.183 818.959 348.556 823.056 348.556C827.152 348.556 831.08 350.183 833.976 353.079C836.873 355.976 838.5 359.904 838.5 364ZM714.944 487.556C714.944 491.652 713.317 495.58 710.421 498.476C707.524 501.373 703.596 503 699.5 503C695.404 503 691.476 501.373 688.579 498.476C685.683 495.58 684.056 491.652 684.056 487.556C684.056 483.459 685.683 479.531 688.579 476.635C691.476 473.738 695.404 472.111 699.5 472.111C703.596 472.111 707.524 473.738 710.421 476.635C713.317 479.531 714.944 483.459 714.944 487.556ZM591.389 364C591.389 368.096 589.762 372.024 586.865 374.921C583.969 377.817 580.041 379.444 575.944 379.444C571.848 379.444 567.92 377.817 565.024 374.921C562.127 372.024 560.5 368.096 560.5 364C560.5 359.904 562.127 355.976 565.024 353.079C567.92 350.183 571.848 348.556 575.944 348.556C580.041 348.556 583.969 350.183 586.865 353.079C589.762 355.976 591.389 359.904 591.389 364Z" stroke="#F5B354" stroke-width="30.8889"/>
</svg>
