<svg width="1400" height="732" viewBox="0 0 1400 732" fill="none" xmlns="http://www.w3.org/2000/svg">
<rect width="1400" height="732" fill="#FFFFF8"/>
<path d="M725.602 507.29C763.99 473.506 832.286 404.483 832.286 341.143C832.286 306.096 818.363 272.485 793.582 247.704C768.8 222.922 735.189 209 700.143 209C665.096 209 631.485 222.922 606.704 247.704C581.922 272.485 568 306.096 568 341.143C568 404.483 636.274 473.506 674.683 507.29C681.689 513.544 690.752 517 700.143 517C709.534 517 718.596 513.544 725.602 507.29ZM656.095 341.143C656.095 329.461 660.736 318.257 668.996 309.996C677.257 301.736 688.461 297.095 700.143 297.095C711.825 297.095 723.029 301.736 731.289 309.996C739.55 318.257 744.19 329.461 744.19 341.143C744.19 352.825 739.55 364.029 731.289 372.289C723.029 380.55 711.825 385.19 700.143 385.19C688.461 385.19 677.257 380.55 668.996 372.289C660.736 364.029 656.095 352.825 656.095 341.143Z" fill="#F5B354"/>
</svg>
