<svg width="1400" height="732" viewBox="0 0 1400 732" fill="none" xmlns="http://www.w3.org/2000/svg">
<rect width="1400" height="732" fill="#FFFFF8"/>
<path d="M661.5 212C658.096 212 654.832 213.352 652.425 215.759C650.019 218.166 648.667 221.43 648.667 224.833C648.667 228.237 650.019 231.501 652.425 233.908C654.832 236.315 658.096 237.667 661.5 237.667H687.167V494.333H661.5C658.096 494.333 654.832 495.685 652.425 498.092C650.019 500.499 648.667 503.763 648.667 507.167C648.667 510.57 650.019 513.834 652.425 516.241C654.832 518.648 658.096 520 661.5 520H738.5C741.904 520 745.168 518.648 747.575 516.241C749.981 513.834 751.333 510.57 751.333 507.167C751.333 503.763 749.981 500.499 747.575 498.092C745.168 495.685 741.904 494.333 738.5 494.333H712.833V237.667H738.5C741.904 237.667 745.168 236.315 747.575 233.908C749.981 231.501 751.333 228.237 751.333 224.833C751.333 221.43 749.981 218.166 747.575 215.759C745.168 213.352 741.904 212 738.5 212H661.5ZM597.333 263.333H661.5V468.667H597.333C583.719 468.667 570.662 463.258 561.035 453.631C551.408 444.005 546 430.948 546 417.333V314.667C546 301.052 551.408 287.995 561.035 278.369C570.662 268.742 583.719 263.333 597.333 263.333ZM802.667 468.667H738.5V263.333H802.667C816.281 263.333 829.338 268.742 838.965 278.369C848.592 287.995 854 301.052 854 314.667V417.333C854 430.948 848.592 444.005 838.965 453.631C829.338 463.258 816.281 468.667 802.667 468.667Z" fill="#F5B354"/>
</svg>
