<svg width="1400" height="732" viewBox="0 0 1400 732" fill="none" xmlns="http://www.w3.org/2000/svg">
<rect width="1400" height="732" fill="#FFFFF8"/>
<path d="M764.357 495.647L851.26 268.686C854.132 261.151 854.762 252.946 853.076 245.06C851.39 237.175 847.458 229.945 841.757 224.243C836.055 218.542 828.825 214.61 820.94 212.924C813.054 211.238 804.849 211.868 797.314 214.74L570.353 301.643C562.888 304.498 556.517 309.64 552.151 316.335C547.786 323.029 545.649 330.933 546.047 338.915C546.445 346.898 549.357 354.55 554.367 360.777C559.377 367.004 566.227 371.488 573.939 373.586L667.025 398.975L692.414 492.061C694.512 499.773 698.996 506.623 705.223 511.633C711.45 516.643 719.102 519.555 727.084 519.953C735.067 520.351 742.971 518.214 749.665 513.849C756.36 509.483 761.502 503.112 764.357 495.647Z" fill="#F5B354"/>
</svg>
