<svg width="1400" height="732" viewBox="0 0 1400 732" fill="none" xmlns="http://www.w3.org/2000/svg">
<rect width="1400" height="732" fill="#FFFFF8"/>
<path d="M642.25 317.875C642.25 258.662 688.912 212 748.125 212C807.338 212 854 258.662 854 317.875C854 377.088 807.338 423.75 748.125 423.75C738.39 423.859 728.683 422.694 719.25 420.285V423.75C719.25 428.855 717.222 433.752 713.612 437.362C710.002 440.972 705.105 443 700 443H680.75V462.25C680.75 467.355 678.722 472.252 675.112 475.862C671.502 479.472 666.605 481.5 661.5 481.5H642.25V491.125C642.25 498.783 639.208 506.128 633.793 511.543C628.378 516.958 621.033 520 613.375 520H574.875C567.217 520 559.872 516.958 554.457 511.543C549.042 506.128 546 498.783 546 491.125V460.594C546 452.933 549.042 445.58 554.47 440.19L641.865 352.775C644.445 350.196 645.715 345.691 644.599 340.494C643.02 333.058 642.233 325.476 642.25 317.875ZM796.25 289C796.25 283.895 794.222 278.998 790.612 275.388C787.002 271.778 782.105 269.75 777 269.75C771.895 269.75 766.998 271.778 763.388 275.388C759.778 278.998 757.75 283.895 757.75 289C757.75 294.105 759.778 299.002 763.388 302.612C766.998 306.222 771.895 308.25 777 308.25C782.105 308.25 787.002 306.222 790.612 302.612C794.222 299.002 796.25 294.105 796.25 289Z" fill="#F5B354"/>
</svg>
