<svg width="1400" height="732" viewBox="0 0 1400 732" fill="none" xmlns="http://www.w3.org/2000/svg">
<rect width="1400" height="732" fill="#FFFFF8"/>
<path d="M590 212C565.731 212 546 231.731 546 256V368.819C558.444 360.088 573.638 355 590 355H810C826.362 355 841.556 360.088 854 368.819V256C854 231.731 834.269 212 810 212H590ZM854 432C854 407.731 834.269 388 810 388H590C565.731 388 546 407.731 546 432V476C546 500.269 565.731 520 590 520H810C834.269 520 854 500.269 854 476V432ZM700 454C700 448.165 702.318 442.569 706.444 438.444C710.569 434.318 716.165 432 722 432C727.835 432 733.431 434.318 737.556 438.444C741.682 442.569 744 448.165 744 454C744 459.835 741.682 465.431 737.556 469.556C733.431 473.682 727.835 476 722 476C716.165 476 710.569 473.682 706.444 469.556C702.318 465.431 700 459.835 700 454ZM788 432C793.835 432 799.431 434.318 803.556 438.444C807.682 442.569 810 448.165 810 454C810 459.835 807.682 465.431 803.556 469.556C799.431 473.682 793.835 476 788 476C782.165 476 776.569 473.682 772.444 469.556C768.318 465.431 766 459.835 766 454C766 448.165 768.318 442.569 772.444 438.444C776.569 434.318 782.165 432 788 432Z" fill="#F5B354"/>
</svg>
