<svg width="1400" height="732" viewBox="0 0 1400 732" fill="none" xmlns="http://www.w3.org/2000/svg">
<rect width="1400" height="732" fill="#FFFFF8"/>
<path d="M792.928 429.703C781.177 429.703 770.663 434.341 762.623 441.608L652.38 377.442C653.153 373.886 653.771 370.329 653.771 366.618C653.771 362.908 653.153 359.351 652.38 355.795L761.386 292.247C769.735 299.978 780.713 304.771 792.928 304.771C818.594 304.771 839.313 284.052 839.313 258.386C839.313 232.719 818.594 212 792.928 212C767.261 212 746.542 232.719 746.542 258.386C746.542 262.096 747.161 265.653 747.934 269.209L638.928 332.757C630.578 325.026 619.6 320.233 607.386 320.233C581.719 320.233 561 340.952 561 366.618C561 392.285 581.719 413.004 607.386 413.004C619.6 413.004 630.578 408.211 638.928 400.48L749.016 464.801C748.243 468.048 747.779 471.45 747.779 474.851C747.779 499.745 768.034 520 792.928 520C817.821 520 838.076 499.745 838.076 474.851C838.076 449.958 817.821 429.703 792.928 429.703Z" fill="#F5B354"/>
</svg>
