<svg width="1400" height="732" viewBox="0 0 1400 732" fill="none" xmlns="http://www.w3.org/2000/svg">
<rect width="1400" height="732" fill="#FFFFF8"/>
<path fill-rule="evenodd" clip-rule="evenodd" d="M843.733 323.133C854 323.133 854 323.12 854 323.12V322.723L853.986 322.551L853.932 321.552C853.853 320.422 853.738 319.294 853.589 318.171C852.963 313.731 852.13 309.323 851.091 304.961C848.326 292.956 842.885 274.004 832.194 245.469C826.335 229.83 812.687 218.05 795.384 216.134C777.418 214.142 747.158 212 700 212C652.842 212 622.583 214.142 604.616 216.134C587.313 218.05 573.672 229.83 567.806 245.469C557.115 274.004 551.674 292.956 548.909 304.961C547.873 309.323 547.042 313.731 546.418 318.171C546.222 319.625 546.085 321.086 546.007 322.551V323.024L546 323.078V323.12C546 323.12 546 323.133 556.267 323.133H546C545.983 335.327 550.788 347.033 559.367 355.699V406.095C559.367 436.169 560.579 458.722 561.941 474.587C564.001 498.577 583.076 516.126 606.525 517.563C626.456 518.782 657.106 520 700.007 520C742.908 520 773.557 518.782 793.488 517.563C816.937 516.126 836.013 498.577 838.073 474.58C839.442 458.722 840.647 436.169 840.647 406.095V355.685C849.217 347.021 854.017 335.321 854 323.133H843.733ZM813.269 369.101C805.503 370.035 797.627 368.976 790.384 366.024C783.14 363.073 776.768 358.325 771.867 352.229C763.4 362.715 750.457 369.422 735.933 369.422C721.409 369.422 708.467 362.715 700 352.229C691.533 362.715 678.591 369.422 664.067 369.422C649.543 369.422 636.6 362.715 628.133 352.229C623.234 358.323 616.863 363.069 609.623 366.021C602.382 368.973 594.509 370.032 586.745 369.101V406.095C586.745 435.437 587.929 457.202 589.216 472.239C590.071 482.13 597.703 489.597 608.202 490.24C618.127 490.843 630.871 491.459 646.668 491.91C646.586 486.23 646.545 479.905 646.545 472.883C646.545 449.064 647.051 433.308 647.62 423.172C648.208 412.604 654.396 403.836 664.813 401.968C672.663 400.564 683.998 399.394 699.993 399.394C715.989 399.394 727.323 400.558 735.174 401.968C745.591 403.836 751.778 412.604 752.367 423.172C752.935 433.308 753.448 449.071 753.448 472.89C753.448 479.898 753.407 486.239 753.325 491.91C766.162 491.56 778.993 491.001 791.811 490.234C802.304 489.59 809.949 482.13 810.798 472.239C812.085 457.202 813.269 435.437 813.269 406.095V369.101Z" fill="#F5B354"/>
</svg>
