<svg width="1400" height="732" viewBox="0 0 1400 732" fill="none" xmlns="http://www.w3.org/2000/svg">
<rect width="1400" height="732" fill="#FFFFF8"/>
<path d="M623.757 394.812H568.074C556.541 394.812 547.192 404.161 547.192 415.694V471.377C547.192 482.91 556.541 492.259 568.074 492.259H623.757C635.29 492.259 644.639 482.91 644.639 471.377V415.694C644.639 404.161 635.29 394.812 623.757 394.812Z" fill="#F5B354"/>
<path d="M831.701 394.812H776.017C764.485 394.812 755.136 404.161 755.136 415.694V471.377C755.136 482.91 764.485 492.259 776.017 492.259H831.701C843.233 492.259 852.582 482.91 852.582 471.377V415.694C852.582 404.161 843.233 394.812 831.701 394.812Z" fill="#F5B354"/>
<path d="M737.925 206H662.04C650.507 206 641.158 215.349 641.158 226.881V302.767C641.158 314.3 650.507 323.649 662.04 323.649H737.925C749.458 323.649 758.807 314.3 758.807 302.767V226.881C758.807 215.349 749.458 206 737.925 206Z" fill="#F5B354"/>
<rect x="524.136" y="369.825" width="352.373" height="147.04" rx="37.8475" stroke="#F5B354" stroke-width="18.2712"/>
</svg>
