<svg width="1400" height="732" viewBox="0 0 1400 732" fill="none" xmlns="http://www.w3.org/2000/svg">
<rect width="1400" height="732" fill="#FFFFF8"/>
<rect x="281" y="212" width="838.95" height="308" rx="32" fill="#FFF1B8"/>
<path d="M1024.87 332.787C1026.73 332.071 1027.18 329.619 1025.74 328.095L1007.18 308.452C1005.55 306.735 1002.81 307.469 1002.4 309.731L997.082 338.603C996.665 340.865 998.911 342.823 1001 342.016L1024.87 332.787Z" fill="#FFB800"/>
<path d="M377.068 409.312V349.209H390.761L391.973 359.388C393.831 355.833 396.497 353.006 399.971 350.905C403.525 348.805 407.686 347.755 412.452 347.755C419.884 347.755 425.66 350.098 429.78 354.783C433.9 359.469 435.96 366.335 435.96 375.383V409.312H420.449V376.837C420.449 371.667 419.399 367.708 417.299 364.962C415.198 362.215 411.927 360.842 407.484 360.842C403.121 360.842 399.526 362.377 396.699 365.447C393.952 368.516 392.579 372.798 392.579 378.291V409.312H377.068Z" fill="black"/>
<path d="M466.666 410.766C461.496 410.766 457.255 409.959 453.942 408.343C450.63 406.646 448.166 404.425 446.551 401.678C444.935 398.932 444.127 395.902 444.127 392.59C444.127 387.016 446.308 382.492 450.671 379.018C455.033 375.545 461.576 373.808 470.301 373.808H485.569V372.354C485.569 368.234 484.398 365.204 482.055 363.265C479.713 361.327 476.804 360.357 473.331 360.357C470.18 360.357 467.433 361.125 465.091 362.659C462.748 364.114 461.294 366.295 460.728 369.203H445.581C445.985 364.841 447.439 361.044 449.944 357.812C452.529 354.581 455.841 352.117 459.88 350.421C463.919 348.643 468.443 347.755 473.452 347.755C482.015 347.755 488.76 349.896 493.688 354.177C498.616 358.459 501.08 364.518 501.08 372.354V409.312H487.872L486.418 399.618C484.64 402.85 482.136 405.515 478.905 407.616C475.754 409.716 471.675 410.766 466.666 410.766ZM470.18 398.649C474.623 398.649 478.056 397.195 480.48 394.286C482.984 391.378 484.56 387.783 485.206 383.502H471.998C467.878 383.502 464.929 384.269 463.152 385.804C461.375 387.258 460.486 389.076 460.486 391.257C460.486 393.6 461.375 395.417 463.152 396.71C464.929 398.003 467.272 398.649 470.18 398.649Z" fill="black"/>
<path d="M540.48 410.766C534.341 410.766 528.928 409.434 524.243 406.768C519.557 404.102 515.841 400.386 513.094 395.619C510.429 390.853 509.096 385.4 509.096 379.261C509.096 373.121 510.429 367.668 513.094 362.902C515.841 358.136 519.557 354.419 524.243 351.754C528.928 349.088 534.341 347.755 540.48 347.755C548.155 347.755 554.617 349.774 559.868 353.814C565.119 357.772 568.472 363.265 569.926 370.294H553.567C552.759 367.385 551.144 365.123 548.72 363.508C546.377 361.811 543.59 360.963 540.359 360.963C536.077 360.963 532.442 362.579 529.453 365.81C526.464 369.041 524.97 373.525 524.97 379.261C524.97 384.996 526.464 389.48 529.453 392.711C532.442 395.943 536.077 397.558 540.359 397.558C543.59 397.558 546.377 396.75 548.72 395.135C551.144 393.519 552.759 391.217 553.567 388.228H569.926C568.472 395.014 565.119 400.466 559.868 404.586C554.617 408.706 548.155 410.766 540.48 410.766Z" fill="black"/>
<path d="M578.846 409.312V322.065H594.356V358.418C596.376 355.106 599.082 352.521 602.475 350.663C605.949 348.724 609.907 347.755 614.35 347.755C621.783 347.755 627.518 350.098 631.557 354.783C635.677 359.469 637.737 366.335 637.737 375.383V409.312H622.348V376.837C622.348 371.667 621.298 367.708 619.197 364.962C617.178 362.215 613.946 360.842 609.503 360.842C605.141 360.842 601.506 362.377 598.597 365.447C595.77 368.516 594.356 372.798 594.356 378.291V409.312H578.846Z" fill="black"/>
<path d="M676.562 410.766C670.746 410.766 665.495 409.434 660.809 406.768C656.204 404.102 652.529 400.426 649.782 395.741C647.116 390.974 645.783 385.481 645.783 379.261C645.783 373.04 647.157 367.587 649.903 362.902C652.65 358.136 656.326 354.419 660.93 351.754C665.616 349.088 670.867 347.755 676.683 347.755C682.419 347.755 687.589 349.088 692.194 351.754C696.879 354.419 700.555 358.136 703.221 362.902C705.968 367.587 707.341 373.04 707.341 379.261C707.341 385.481 705.968 390.974 703.221 395.741C700.555 400.426 696.879 404.102 692.194 406.768C687.508 409.434 682.298 410.766 676.562 410.766ZM676.562 397.316C680.601 397.316 684.115 395.821 687.104 392.832C690.093 389.763 691.588 385.239 691.588 379.261C691.588 373.283 690.093 368.799 687.104 365.81C684.115 362.74 680.642 361.205 676.683 361.205C672.563 361.205 669.009 362.74 666.02 365.81C663.112 368.799 661.657 373.283 661.657 379.261C661.657 385.239 663.112 389.763 666.02 392.832C669.009 395.821 672.523 397.316 676.562 397.316Z" fill="black"/>
<path d="M745.808 410.766C739.668 410.766 734.256 409.434 729.57 406.768C724.885 404.102 721.169 400.386 718.422 395.619C715.756 390.853 714.423 385.4 714.423 379.261C714.423 373.121 715.756 367.668 718.422 362.902C721.169 358.136 724.885 354.419 729.57 351.754C734.256 349.088 739.668 347.755 745.808 347.755C753.482 347.755 759.945 349.774 765.196 353.814C770.447 357.772 773.799 363.265 775.254 370.294H758.895C758.087 367.385 756.471 365.123 754.048 363.508C751.705 361.811 748.918 360.963 745.687 360.963C741.405 360.963 737.77 362.579 734.781 365.81C731.792 369.041 730.297 373.525 730.297 379.261C730.297 384.996 731.792 389.48 734.781 392.711C737.77 395.943 741.405 397.558 745.687 397.558C748.918 397.558 751.705 396.75 754.048 395.135C756.471 393.519 758.087 391.217 758.895 388.228H775.254C773.799 395.014 770.447 400.466 765.196 404.586C759.945 408.706 753.482 410.766 745.808 410.766Z" fill="black"/>
<path d="M813.013 410.766C807.197 410.766 801.946 409.434 797.26 406.768C792.656 404.102 788.98 400.426 786.233 395.741C783.567 390.974 782.234 385.481 782.234 379.261C782.234 373.04 783.608 367.587 786.354 362.902C789.101 358.136 792.777 354.419 797.381 351.754C802.067 349.088 807.318 347.755 813.134 347.755C818.87 347.755 824.04 349.088 828.645 351.754C833.33 354.419 837.006 358.136 839.672 362.902C842.419 367.587 843.792 373.04 843.792 379.261C843.792 385.481 842.419 390.974 839.672 395.741C837.006 400.426 833.33 404.102 828.645 406.768C823.959 409.434 818.749 410.766 813.013 410.766ZM813.013 397.316C817.052 397.316 820.567 395.821 823.556 392.832C826.545 389.763 828.039 385.239 828.039 379.261C828.039 373.283 826.545 368.799 823.556 365.81C820.567 362.74 817.093 361.205 813.134 361.205C809.014 361.205 805.46 362.74 802.471 365.81C799.563 368.799 798.109 373.283 798.109 379.261C798.109 385.239 799.563 389.763 802.471 392.832C805.46 395.821 808.974 397.316 813.013 397.316Z" fill="black"/>
<path d="M880.441 410.766C874.786 410.766 869.737 409.393 865.294 406.646C860.851 403.9 857.337 400.143 854.752 395.377C852.167 390.611 850.874 385.198 850.874 379.139C850.874 373.081 852.167 367.708 854.752 363.023C857.337 358.257 860.851 354.541 865.294 351.875C869.737 349.128 874.786 347.755 880.441 347.755C884.965 347.755 888.924 348.603 892.316 350.299C895.709 351.996 898.456 354.379 900.556 357.449V322.065H916.067V409.312H902.253L900.556 400.709C898.618 403.375 896.033 405.717 892.801 407.737C889.651 409.757 885.531 410.766 880.441 410.766ZM883.713 397.195C888.722 397.195 892.801 395.539 895.952 392.226C899.183 388.834 900.799 384.512 900.799 379.261C900.799 374.01 899.183 369.728 895.952 366.416C892.801 363.023 888.722 361.327 883.713 361.327C878.785 361.327 874.705 362.983 871.474 366.295C868.243 369.607 866.627 373.888 866.627 379.139C866.627 384.39 868.243 388.712 871.474 392.105C874.705 395.498 878.785 397.195 883.713 397.195Z" fill="black"/>
<path d="M956.218 410.766C950.159 410.766 944.787 409.474 940.102 406.889C935.416 404.304 931.74 400.668 929.074 395.983C926.409 391.297 925.076 385.885 925.076 379.745C925.076 373.525 926.368 367.991 928.953 363.144C931.619 358.297 935.254 354.541 939.859 351.875C944.545 349.128 950.038 347.755 956.339 347.755C962.236 347.755 967.447 349.047 971.971 351.632C976.495 354.218 980.009 357.772 982.513 362.296C985.098 366.739 986.391 371.707 986.391 377.201C986.391 378.089 986.35 379.018 986.27 379.988C986.27 380.957 986.229 381.967 986.148 383.017H940.465C940.788 387.703 942.404 391.378 945.312 394.044C948.301 396.71 951.896 398.043 956.097 398.043C959.247 398.043 961.873 397.356 963.973 395.983C966.154 394.529 967.77 392.671 968.82 390.409H984.573C983.442 394.206 981.544 397.679 978.878 400.83C976.293 403.9 973.061 406.323 969.184 408.101C965.387 409.878 961.065 410.766 956.218 410.766ZM956.339 360.357C952.542 360.357 949.19 361.448 946.282 363.629C943.373 365.729 941.515 368.961 940.707 373.323H970.638C970.396 369.365 968.941 366.214 966.276 363.871C963.61 361.528 960.298 360.357 956.339 360.357Z" fill="black"/>
</svg>
