<svg version="1.1" id="Layer_1" xmlns="http://www.w3.org/2000/svg" xmlns:xlink="http://www.w3.org/1999/xlink" x="0px" y="0px"
	 width="100%" viewBox="0 0 2800 1464" enable-background="new 0 0 2800 1464" xml:space="preserve">
<path fill="#F8F8F8" opacity="1.000000" stroke="none" 
	d="
M1829.000000,1465.000000 
	C1219.333374,1465.000000 610.166687,1465.000000 1.000000,1465.000000 
	C1.000000,977.000000 1.000000,489.000000 1.000000,1.000000 
	C934.333313,1.000000 1867.666626,1.000000 2801.000000,1.000000 
	C2801.000000,489.000000 2801.000000,977.000000 2801.000000,1465.000000 
	C2477.166748,1465.000000 2153.333252,1465.000000 1829.000000,1465.000000 
M1540.107910,876.927917 
	C1539.750366,886.213196 1539.309692,895.496216 1539.063965,904.784424 
	C1538.893555,911.225403 1541.399780,914.637939 1547.556152,916.636841 
	C1552.301147,918.177551 1557.015137,920.035706 1561.893921,920.893127 
	C1570.200928,922.353027 1575.748291,926.129089 1577.330933,934.939575 
	C1577.845703,937.805176 1579.976562,940.352966 1580.715088,943.214722 
	C1581.275513,945.385681 1581.483765,948.105408 1580.664917,950.093445 
	C1577.499756,957.778809 1573.870605,965.273499 1570.393188,972.829529 
	C1568.160034,977.681824 1569.062866,981.866211 1572.927734,985.504822 
	C1579.597412,991.783997 1586.246704,998.084961 1592.894043,1004.388000 
	C1596.812378,1008.103516 1601.163574,1009.010803 1606.189697,1006.757568 
	C1612.105103,1004.105774 1618.272217,1001.954529 1623.991333,998.942993 
	C1630.298462,995.621887 1636.109497,994.504089 1642.429077,998.855164 
	C1644.826172,1000.505493 1648.158569,1000.757507 1650.672607,1002.290039 
	C1652.869385,1003.629150 1655.310425,1005.532593 1656.264404,1007.773743 
	C1659.842773,1016.180359 1662.875488,1024.820312 1666.073975,1033.387207 
	C1667.824829,1038.076904 1671.088135,1040.889038 1676.131226,1040.979248 
	C1684.793335,1041.134277 1693.464233,1041.189209 1702.123657,1040.973999 
	C1708.810547,1040.807739 1713.859375,1038.043091 1715.902466,1031.063232 
	C1717.068726,1027.078857 1719.111450,1023.314575 1719.967407,1019.282959 
	C1722.018433,1009.622253 1727.099243,1003.389038 1737.197510,1001.559814 
	C1739.897705,1001.070618 1742.285156,999.002075 1744.983154,998.306152 
	C1746.980225,997.791016 1749.570190,997.657227 1751.338623,998.509827 
	C1758.377319,1001.903564 1765.184570,1005.775391 1772.102905,1009.421997 
	C1777.561279,1012.299072 1781.679932,1011.843445 1786.294189,1007.762695 
	C1793.780273,1001.142212 1801.237915,994.488464 1808.640869,987.775146 
	C1813.890991,983.014221 1814.581665,979.156677 1811.582153,972.599060 
	C1808.883423,966.699097 1806.428955,960.667908 1803.387085,954.949829 
	C1800.400269,949.335815 1799.202271,944.100098 1802.638306,938.150513 
	C1804.258301,935.345398 1804.387207,931.714905 1805.755005,928.715149 
	C1806.588379,926.887390 1808.204956,924.847900 1809.971802,924.116882 
	C1816.264282,921.513245 1822.783691,919.462585 1829.194946,917.140808 
	C1837.322754,914.197327 1838.779907,911.914917 1839.159058,903.179321 
	C1839.537842,894.454224 1840.217896,885.742126 1840.950928,876.212402 
	C1841.446655,870.570557 1838.580811,867.100220 1833.661255,864.984924 
	C1827.702637,862.422607 1821.844360,859.566650 1815.734985,857.432434 
	C1810.006592,855.431152 1806.017456,852.371521 1804.389648,846.224548 
	C1803.510376,842.903748 1801.229370,839.971924 1800.165283,836.675903 
	C1799.476929,834.543274 1799.123291,831.799927 1799.870117,829.796387 
	C1802.654785,822.325745 1806.147827,815.120911 1808.998535,807.672363 
	C1811.002808,802.435059 1810.840210,797.464111 1806.269043,793.076355 
	C1799.544067,786.621094 1793.223389,779.746338 1786.661743,773.118347 
	C1781.933228,768.341675 1778.116455,767.725830 1772.293579,770.754761 
	C1766.094604,773.979370 1759.876221,777.180237 1753.814087,780.649353 
	C1750.409790,782.597595 1747.459839,783.229553 1743.665283,781.267822 
	C1739.568604,779.149841 1734.865479,778.231384 1730.656128,776.292297 
	C1728.680664,775.382263 1726.473511,773.617859 1725.695312,771.702698 
	C1722.443237,763.697632 1719.721313,755.478394 1716.750244,747.357727 
	C1714.567749,741.392822 1711.362915,739.071899 1705.165649,739.039673 
	C1695.337280,738.988525 1685.508179,738.984497 1675.679810,739.042908 
	C1669.757690,739.078064 1666.430420,741.421448 1664.364746,747.014954 
	C1662.060913,753.253418 1659.634033,759.465149 1657.743164,765.831787 
	C1656.121948,771.290710 1653.558350,775.112732 1647.591064,776.611755 
	C1644.141479,777.478394 1640.906372,779.603821 1637.875244,781.615479 
	C1634.964355,783.547302 1632.535400,783.880615 1629.204956,782.345581 
	C1621.659180,778.867554 1613.812744,776.048950 1606.184937,772.739685 
	C1601.112915,770.539246 1596.788818,771.421936 1592.888184,775.089905 
	C1586.337891,781.249146 1579.756226,787.377563 1573.314453,793.648987 
	C1568.617676,798.221436 1568.079712,801.705872 1570.828125,807.569458 
	C1574.075928,814.498108 1577.592163,821.311707 1580.537842,828.364868 
	C1581.433228,830.508789 1581.431396,833.453918 1580.781128,835.729370 
	C1579.371582,840.661072 1577.570068,845.537964 1575.344849,850.155945 
	C1574.175659,852.582458 1572.167114,855.143555 1569.860229,856.384155 
	C1562.250244,860.476562 1554.339722,864.012512 1546.527100,867.725159 
	C1542.974243,869.413452 1540.635986,871.954590 1540.107910,876.927917 
M1203.267456,560.894287 
	C1203.174561,571.959534 1202.225098,583.096863 1203.149414,594.076477 
	C1205.917114,626.953003 1218.411377,656.123108 1240.497437,680.509521 
	C1277.971924,721.887207 1324.922607,739.414795 1380.201904,730.900574 
	C1430.466187,723.158813 1467.828369,695.711731 1492.224487,651.137146 
	C1507.954590,622.396423 1512.573608,591.408569 1508.880493,558.203552 
	C1508.399048,555.255371 1508.060303,552.275696 1507.415039,549.363770 
	C1495.735596,496.648346 1465.450195,458.927368 1415.967529,437.169922 
	C1390.272339,425.871765 1363.169922,422.546417 1335.385742,426.358154 
	C1305.827515,430.413300 1279.333862,442.019470 1256.710449,461.455658 
	C1226.481323,487.425934 1208.356567,520.225464 1203.267456,560.894287 
M1497.194580,932.674011 
	C1492.359741,922.416199 1490.138550,911.720703 1491.055664,900.312622 
	C1491.705444,892.230286 1491.705933,884.096619 1492.042236,875.987854 
	C1492.559692,863.513306 1495.851318,851.766663 1504.063843,842.299438 
	C1510.073608,835.371460 1517.473511,829.649353 1524.632080,823.040527 
	C1523.655884,817.869751 1521.898193,811.567810 1521.456909,805.175049 
	C1521.157104,800.833496 1519.307007,799.408569 1515.648804,798.980103 
	C1503.651367,797.574951 1491.656372,795.037170 1479.651489,794.984741 
	C1398.171021,794.628540 1316.687866,794.937744 1235.206421,794.718750 
	C1208.655762,794.647400 1183.563477,800.082336 1160.380615,812.944702 
	C1111.623657,839.996033 1085.193970,881.883423 1079.044312,937.943481 
	C1079.030884,952.108765 1078.883301,966.275940 1079.083740,980.438232 
	C1079.145996,984.844604 1079.757690,989.331970 1080.787354,993.621582 
	C1087.580200,1021.916626 1111.861328,1040.995972 1141.062256,1041.001953 
	C1279.550049,1041.030518 1418.037720,1041.015625 1556.525513,1041.002930 
	C1557.911621,1041.002808 1559.297729,1040.821777 1561.516479,1040.667236 
	C1553.835693,1033.457642 1546.743408,1026.940796 1539.808350,1020.260498 
	C1527.045288,1007.966370 1520.653931,992.872925 1521.113892,975.173828 
	C1521.253296,969.810608 1522.803711,964.484070 1523.761597,958.823364 
	C1512.253174,953.253540 1503.827637,944.257996 1497.194580,932.674011 
z"/>
<path fill="#FA7C47" opacity="1.000000" stroke="none" 
	d="
M1079.163574,937.014832 
	C1085.193970,881.883423 1111.623657,839.996033 1160.380615,812.944702 
	C1183.563477,800.082336 1208.655762,794.647400 1235.206421,794.718750 
	C1316.687866,794.937744 1398.171021,794.628540 1479.651489,794.984741 
	C1491.656372,795.037170 1503.651367,797.574951 1515.648804,798.980103 
	C1519.307007,799.408569 1521.157104,800.833496 1521.456909,805.175049 
	C1521.898193,811.567810 1523.655884,817.869751 1524.632080,823.040527 
	C1517.473511,829.649353 1510.073608,835.371460 1504.063843,842.299438 
	C1495.851318,851.766663 1492.559692,863.513306 1492.042236,875.987854 
	C1491.705933,884.096619 1491.705444,892.230286 1491.055664,900.312622 
	C1490.138550,911.720703 1492.359741,922.416199 1497.001953,933.401978 
	C1486.561279,935.030457 1476.328247,936.265564 1466.060547,936.717834 
	C1458.796997,937.037781 1451.488281,936.189148 1444.196533,936.085266 
	C1441.247314,936.043152 1437.984985,937.536560 1435.393066,936.698364 
	C1427.783081,934.237366 1420.268799,935.464417 1412.697144,936.072205 
	C1410.008423,936.288025 1407.331299,937.104736 1404.663452,937.040161 
	C1397.630859,936.869873 1390.609985,936.202637 1383.577393,936.039429 
	C1375.580811,935.853821 1367.572021,936.170105 1359.577515,935.946655 
	C1353.510498,935.777222 1347.428833,934.448059 1341.620605,937.525208 
	C1340.793457,937.963501 1339.421143,937.324280 1338.296753,937.257996 
	C1330.939087,936.823853 1323.584229,936.208435 1316.220459,936.065125 
	C1311.773926,935.978516 1307.213013,937.374573 1302.881226,936.789490 
	C1295.933105,935.851135 1289.184326,934.243896 1282.225708,936.836853 
	C1280.704346,937.403748 1278.653809,936.654602 1276.867065,936.380188 
	C1274.280396,935.982910 1271.682617,934.955322 1269.141602,935.101135 
	C1262.944946,935.456970 1256.787964,936.741882 1250.596924,936.888489 
	C1243.933472,937.046204 1237.251465,936.145874 1230.573242,936.069092 
	C1226.455933,936.021667 1222.333374,936.885376 1218.208618,936.931152 
	C1206.692749,937.059143 1195.174561,936.985535 1183.657227,936.960693 
	C1182.004761,936.957092 1180.352051,936.789062 1178.700195,936.686462 
	C1172.453003,936.298706 1166.123413,935.114136 1159.984253,935.755737 
	C1154.656006,936.312439 1149.456909,937.549194 1143.996948,937.017151 
	C1138.157349,936.448059 1132.277954,936.154480 1126.410034,936.039795 
	C1118.245728,935.880188 1110.076050,935.993103 1101.908691,936.000916 
	C1097.832031,936.004761 1093.750366,935.916199 1089.680176,936.087952 
	C1086.167969,936.236145 1082.668579,936.693909 1079.163574,937.014832 
z"/>
<path fill="#F97238" opacity="1.000000" stroke="none" 
	d="
M1079.104004,937.479126 
	C1082.668579,936.693909 1086.167969,936.236145 1089.680176,936.087952 
	C1093.750366,935.916199 1097.832031,936.004761 1101.908691,936.000916 
	C1110.076050,935.993103 1118.245728,935.880188 1126.410034,936.039795 
	C1132.277954,936.154480 1138.157349,936.448059 1143.996948,937.017151 
	C1149.456909,937.549194 1154.656006,936.312439 1159.984253,935.755737 
	C1166.123413,935.114136 1172.453003,936.298706 1178.700195,936.686462 
	C1180.352051,936.789062 1182.004761,936.957092 1183.657227,936.960693 
	C1195.174561,936.985535 1206.692749,937.059143 1218.208618,936.931152 
	C1222.333374,936.885376 1226.455933,936.021667 1230.573242,936.069092 
	C1237.251465,936.145874 1243.933472,937.046204 1250.596924,936.888489 
	C1256.787964,936.741882 1262.944946,935.456970 1269.141602,935.101135 
	C1271.682617,934.955322 1274.280396,935.982910 1276.867065,936.380188 
	C1278.653809,936.654602 1280.704346,937.403748 1282.225708,936.836853 
	C1289.184326,934.243896 1295.933105,935.851135 1302.881226,936.789490 
	C1307.213013,937.374573 1311.773926,935.978516 1316.220459,936.065125 
	C1323.584229,936.208435 1330.939087,936.823853 1338.296753,937.257996 
	C1339.421143,937.324280 1340.793457,937.963501 1341.620605,937.525208 
	C1347.428833,934.448059 1353.510498,935.777222 1359.577515,935.946655 
	C1367.572021,936.170105 1375.580811,935.853821 1383.577393,936.039429 
	C1390.609985,936.202637 1397.630859,936.869873 1404.663452,937.040161 
	C1407.331299,937.104736 1410.008423,936.288025 1412.697144,936.072205 
	C1420.268799,935.464417 1427.783081,934.237366 1435.393066,936.698364 
	C1437.984985,937.536560 1441.247314,936.043152 1444.196533,936.085266 
	C1451.488281,936.189148 1458.796997,937.037781 1466.060547,936.717834 
	C1476.328247,936.265564 1486.561279,935.030457 1497.021973,933.754639 
	C1503.827637,944.257996 1512.253174,953.253540 1523.761597,958.823364 
	C1522.803711,964.484070 1521.253296,969.810608 1521.113892,975.173828 
	C1520.653931,992.872925 1527.045288,1007.966370 1539.808350,1020.260498 
	C1546.743408,1026.940796 1553.835693,1033.457642 1561.516479,1040.667236 
	C1559.297729,1040.821777 1557.911621,1041.002808 1556.525513,1041.002930 
	C1418.037720,1041.015625 1279.550049,1041.030518 1141.062256,1041.001953 
	C1111.861328,1040.995972 1087.580200,1021.916626 1080.787354,993.621582 
	C1079.757690,989.331970 1079.145996,984.844604 1079.083740,980.438232 
	C1078.883301,966.275940 1079.030884,952.108765 1079.104004,937.479126 
z"/>
<path fill="#FA9165" opacity="1.000000" stroke="none" 
	d="
M1508.771362,559.032043 
	C1512.573608,591.408569 1507.954590,622.396423 1492.224487,651.137146 
	C1467.828369,695.711731 1430.466187,723.158813 1380.201904,730.900574 
	C1324.922607,739.414795 1277.971924,721.887207 1240.497437,680.509521 
	C1218.411377,656.123108 1205.917114,626.953003 1203.149414,594.076477 
	C1202.225098,583.096863 1203.174561,571.959534 1203.759888,560.370728 
	C1214.433838,559.612854 1224.615112,559.214172 1234.796997,559.200806 
	C1241.827026,559.191589 1248.860718,560.004211 1255.887939,559.939819 
	C1270.582764,559.804993 1285.273071,559.153442 1299.967773,559.042358 
	C1321.682251,558.878235 1343.399170,559.000000 1365.114990,559.000000 
	C1373.115479,559.000000 1381.115967,559.000061 1389.116455,559.000122 
	C1400.458618,559.000122 1411.800659,559.000061 1423.142822,559.000000 
	C1438.376587,559.000000 1453.610962,558.926941 1468.843750,559.045654 
	C1473.296997,559.080322 1477.749512,559.974121 1482.196289,559.925537 
	C1491.056885,559.828796 1499.913208,559.351929 1508.771362,559.032043 
z"/>
<path fill="#FB9D75" opacity="1.000000" stroke="none" 
	d="
M1508.825928,558.617798 
	C1499.913208,559.351929 1491.056885,559.828796 1482.196289,559.925537 
	C1477.749512,559.974121 1473.296997,559.080322 1468.843750,559.045654 
	C1453.610962,558.926941 1438.376587,559.000000 1423.142822,559.000000 
	C1411.800659,559.000061 1400.458618,559.000122 1389.116455,559.000122 
	C1381.115967,559.000061 1373.115479,559.000000 1365.114990,559.000000 
	C1343.399170,559.000000 1321.682251,558.878235 1299.967773,559.042358 
	C1285.273071,559.153442 1270.582764,559.804993 1255.887939,559.939819 
	C1248.860718,560.004211 1241.827026,559.191589 1234.796997,559.200806 
	C1224.615112,559.214172 1214.433838,559.612854 1203.888794,559.946655 
	C1208.356567,520.225464 1226.481323,487.425934 1256.710449,461.455658 
	C1279.333862,442.019470 1305.827515,430.413300 1335.385742,426.358154 
	C1363.169922,422.546417 1390.272339,425.871765 1415.967529,437.169922 
	C1465.450195,458.927368 1495.735596,496.648346 1507.415039,549.363770 
	C1508.060303,552.275696 1508.399048,555.255371 1508.825928,558.617798 
z"/>
<path fill="#F9763E" opacity="1.000000" stroke="none" 
	d="
M1840.765869,877.024353 
	C1840.217896,885.742126 1839.537842,894.454224 1839.159058,903.179321 
	C1838.779907,911.914917 1837.322754,914.197327 1829.194946,917.140808 
	C1822.783691,919.462585 1816.264282,921.513245 1809.971802,924.116882 
	C1808.204956,924.847900 1806.588379,926.887390 1805.755005,928.715149 
	C1804.387207,931.714905 1804.258301,935.345398 1802.638306,938.150513 
	C1799.202271,944.100098 1800.400269,949.335815 1803.387085,954.949829 
	C1806.428955,960.667908 1808.883423,966.699097 1811.582153,972.599060 
	C1814.581665,979.156677 1813.890991,983.014221 1808.640869,987.775146 
	C1801.237915,994.488464 1793.780273,1001.142212 1786.294189,1007.762695 
	C1781.679932,1011.843445 1777.561279,1012.299072 1772.102905,1009.421997 
	C1765.184570,1005.775391 1758.377319,1001.903564 1751.338623,998.509827 
	C1749.570190,997.657227 1746.980225,997.791016 1744.983154,998.306152 
	C1742.285156,999.002075 1739.897705,1001.070618 1737.197510,1001.559814 
	C1727.099243,1003.389038 1722.018433,1009.622253 1719.967407,1019.282959 
	C1719.111450,1023.314575 1717.068726,1027.078857 1715.902466,1031.063232 
	C1713.859375,1038.043091 1708.810547,1040.807739 1702.123657,1040.973999 
	C1693.464233,1041.189209 1684.793335,1041.134277 1676.131226,1040.979248 
	C1671.088135,1040.889038 1667.824829,1038.076904 1666.073975,1033.387207 
	C1662.875488,1024.820312 1659.842773,1016.180359 1656.264404,1007.773743 
	C1655.310425,1005.532593 1652.869385,1003.629150 1650.672607,1002.290039 
	C1648.158569,1000.757507 1644.826172,1000.505493 1642.429077,998.855164 
	C1636.109497,994.504089 1630.298462,995.621887 1623.991333,998.942993 
	C1618.272217,1001.954529 1612.105103,1004.105774 1606.189697,1006.757568 
	C1601.163574,1009.010803 1596.812378,1008.103516 1592.894043,1004.388000 
	C1586.246704,998.084961 1579.597412,991.783997 1572.927734,985.504822 
	C1569.062866,981.866211 1568.160034,977.681824 1570.393188,972.829529 
	C1573.870605,965.273499 1577.499756,957.778809 1580.664917,950.093445 
	C1581.483765,948.105408 1581.275513,945.385681 1580.715088,943.214722 
	C1579.976562,940.352966 1577.845703,937.805176 1577.330933,934.939575 
	C1575.748291,926.129089 1570.200928,922.353027 1561.893921,920.893127 
	C1557.015137,920.035706 1552.301147,918.177551 1547.556152,916.636841 
	C1541.399780,914.637939 1538.893555,911.225403 1539.063965,904.784424 
	C1539.309692,895.496216 1539.750366,886.213196 1540.613892,876.490662 
	C1543.739014,876.368958 1546.349976,876.801514 1548.978394,876.981567 
	C1570.406372,878.449768 1591.911865,874.652100 1613.331543,877.913818 
	C1615.169678,878.193726 1617.192993,877.327759 1619.118530,876.936646 
	C1620.240479,876.708862 1621.348145,876.085144 1622.446655,876.120972 
	C1630.487305,876.382446 1638.524170,876.765869 1646.454956,877.527893 
	C1646.189087,878.762207 1646.036621,879.580688 1645.870972,880.396484 
	C1641.614868,901.360657 1651.725586,921.965332 1670.535156,930.656982 
	C1690.086792,939.691589 1712.920898,934.552124 1726.066406,918.002136 
	C1735.388062,906.266235 1737.703247,892.899231 1734.959717,878.105286 
	C1738.365601,877.525146 1741.543579,877.113464 1744.730713,877.025635 
	C1758.894043,876.634888 1773.058960,876.191528 1787.225830,876.071289 
	C1793.661499,876.016602 1800.100342,876.865173 1806.542725,876.956787 
	C1817.948364,877.119141 1829.357910,877.016235 1840.765869,877.024353 
z"/>
<path fill="#FA814E" opacity="1.000000" stroke="none" 
	d="
M1646.562134,877.110779 
	C1638.524170,876.765869 1630.487305,876.382446 1622.446655,876.120972 
	C1621.348145,876.085144 1620.240479,876.708862 1619.118530,876.936646 
	C1617.192993,877.327759 1615.169678,878.193726 1613.331543,877.913818 
	C1591.911865,874.652100 1570.406372,878.449768 1548.978394,876.981567 
	C1546.349976,876.801514 1543.739014,876.368958 1540.719727,876.043701 
	C1540.635986,871.954590 1542.974243,869.413452 1546.527100,867.725159 
	C1554.339722,864.012512 1562.250244,860.476562 1569.860229,856.384155 
	C1572.167114,855.143555 1574.175659,852.582458 1575.344849,850.155945 
	C1577.570068,845.537964 1579.371582,840.661072 1580.781128,835.729370 
	C1581.431396,833.453918 1581.433228,830.508789 1580.537842,828.364868 
	C1577.592163,821.311707 1574.075928,814.498108 1570.828125,807.569458 
	C1568.079712,801.705872 1568.617676,798.221436 1573.314453,793.648987 
	C1579.756226,787.377563 1586.337891,781.249146 1592.888184,775.089905 
	C1596.788818,771.421936 1601.112915,770.539246 1606.184937,772.739685 
	C1613.812744,776.048950 1621.659180,778.867554 1629.204956,782.345581 
	C1632.535400,783.880615 1634.964355,783.547302 1637.875244,781.615479 
	C1640.906372,779.603821 1644.141479,777.478394 1647.591064,776.611755 
	C1653.558350,775.112732 1656.121948,771.290710 1657.743164,765.831787 
	C1659.634033,759.465149 1662.060913,753.253418 1664.364746,747.014954 
	C1666.430420,741.421448 1669.757690,739.078064 1675.679810,739.042908 
	C1685.508179,738.984497 1695.337280,738.988525 1705.165649,739.039673 
	C1711.362915,739.071899 1714.567749,741.392822 1716.750244,747.357727 
	C1719.721313,755.478394 1722.443237,763.697632 1725.695312,771.702698 
	C1726.473511,773.617859 1728.680664,775.382263 1730.656128,776.292297 
	C1734.865479,778.231384 1739.568604,779.149841 1743.665283,781.267822 
	C1747.459839,783.229553 1750.409790,782.597595 1753.814087,780.649353 
	C1759.876221,777.180237 1766.094604,773.979370 1772.293579,770.754761 
	C1778.116455,767.725830 1781.933228,768.341675 1786.661743,773.118347 
	C1793.223389,779.746338 1799.544067,786.621094 1806.269043,793.076355 
	C1810.840210,797.464111 1811.002808,802.435059 1808.998535,807.672363 
	C1806.147827,815.120911 1802.654785,822.325745 1799.870117,829.796387 
	C1799.123291,831.799927 1799.476929,834.543274 1800.165283,836.675903 
	C1801.229370,839.971924 1803.510376,842.903748 1804.389648,846.224548 
	C1806.017456,852.371521 1810.006592,855.431152 1815.734985,857.432434 
	C1821.844360,859.566650 1827.702637,862.422607 1833.661255,864.984924 
	C1838.580811,867.100220 1841.446655,870.570557 1840.858398,876.618408 
	C1829.357910,877.016235 1817.948364,877.119141 1806.542725,876.956787 
	C1800.100342,876.865173 1793.661499,876.016602 1787.225830,876.071289 
	C1773.058960,876.191528 1758.894043,876.634888 1744.730713,877.025635 
	C1741.543579,877.113464 1738.365601,877.525146 1734.724731,877.821045 
	C1726.570190,856.110962 1709.453247,843.690491 1687.505615,845.190063 
	C1667.020996,846.589722 1653.633179,858.031372 1646.562134,877.110779 
z"/>
<path fill="#F8F8F8" opacity="1.000000" stroke="none" 
	d="
M1646.454956,877.527893 
	C1653.633179,858.031372 1667.020996,846.589722 1687.505615,845.190063 
	C1709.453247,843.690491 1726.570190,856.110962 1734.501221,878.138550 
	C1737.703247,892.899231 1735.388062,906.266235 1726.066406,918.002136 
	C1712.920898,934.552124 1690.086792,939.691589 1670.535156,930.656982 
	C1651.725586,921.965332 1641.614868,901.360657 1645.870972,880.396484 
	C1646.036621,879.580688 1646.189087,878.762207 1646.454956,877.527893 
z"/>
</svg>