<svg width="1400" height="732" viewBox="0 0 1400 732" fill="none" xmlns="http://www.w3.org/2000/svg">
<rect width="1400" height="732" fill="#FFFFF8"/>
<path d="M854 265.9C854 295.622 829.822 319.8 800.1 319.8C770.378 319.8 746.2 295.622 746.2 265.9C746.2 236.178 770.378 212 800.1 212C829.822 212 854 236.178 854 265.9ZM800.1 350.6C777.649 350.559 756.129 341.622 740.253 325.747C724.378 309.871 715.441 288.351 715.4 265.9C715.4 258.2 716.632 250.5 718.634 242.8H576.8C559.706 242.8 546 256.506 546 273.6V489.2C546 497.369 549.245 505.203 555.021 510.979C560.797 516.755 568.631 520 576.8 520H792.4C809.494 520 823.2 506.294 823.2 489.2V347.366C815.5 349.368 807.8 350.6 800.1 350.6Z" fill="#F5B354"/>
</svg>
