<svg width="1400" height="732" viewBox="0 0 1400 732" fill="none" xmlns="http://www.w3.org/2000/svg">
<rect width="1400" height="732" fill="#FFFFF8"/>
<path d="M734.048 473.8C747.369 473.8 754.407 489.57 745.521 499.487C739.744 505.941 732.671 511.103 724.763 514.638C716.855 518.172 708.291 519.999 699.629 520C690.968 519.999 682.403 518.172 674.496 514.638C666.588 511.103 659.515 505.941 653.737 499.487C645.236 490.001 651.304 475.171 663.501 473.908L665.195 473.815L734.048 473.8ZM699.629 212C720.542 212 738.222 225.906 743.904 244.971L744.613 247.605L744.736 248.267C761.715 257.841 776.184 271.303 786.955 287.549C797.727 303.795 804.495 322.363 806.705 341.73L807.137 346.149L807.429 350.6V395.737L807.753 397.832C809.861 409.179 816.141 419.326 825.355 426.276L827.927 428.077L830.421 429.602C843.665 437.102 839.045 456.798 824.616 458.308L822.829 458.4H576.429C560.598 458.4 555.069 437.394 568.837 429.602C574.705 426.281 579.775 421.717 583.691 416.228C587.607 410.74 590.274 404.461 591.506 397.832L591.829 395.63L591.845 349.892C592.784 329.777 598.639 310.2 608.897 292.873C619.155 275.545 633.504 260.997 650.688 250.5L654.507 248.252L654.661 247.589C656.834 238.378 661.783 230.055 668.839 223.748C675.896 217.44 684.719 213.453 694.116 212.323L696.919 212.062L699.629 212Z" fill="#F5B354"/>
</svg>
