<?xml version="1.0" standalone="no"?>
<!DOCTYPE svg PUBLIC "-//W3C//DTD SVG 20010904//EN"
 "http://www.w3.org/TR/2001/REC-SVG-20010904/DTD/svg10.dtd">
<svg version="1.0" xmlns="http://www.w3.org/2000/svg"
 width="512.000000pt" height="512.000000pt" viewBox="0 0 512.000000 512.000000"
 preserveAspectRatio="xMidYMid meet">
<metadata>
Created by potrace 1.14, written by Peter Selinger 2001-2017
</metadata>
<g transform="translate(0.000000,512.000000) scale(0.100000,-0.100000)"
fill="#000000" stroke="none">
<path d="M2480 4228 c-53 -26 -219 -192 -1096 -1094 -49 -50 -211 -217 -360
-370 -150 -154 -318 -326 -374 -384 -290 -298 -315 -329 -326 -411 -9 -67 27
-130 139 -242 92 -92 203 -192 256 -231 16 -12 55 -41 87 -65 81 -62 251 -168
364 -228 334 -178 760 -299 1162 -330 157 -12 469 -6 563 11 11 2 46 7 79 11
92 11 320 56 386 76 19 5 43 12 52 14 30 7 259 85 294 100 19 8 51 22 72 31
192 84 390 198 557 323 192 144 399 343 440 425 60 119 36 158 -305 506 -63
64 -261 267 -440 450 -179 183 -372 381 -430 440 -58 59 -251 257 -430 440
-447 458 -440 451 -490 491 -82 65 -126 73 -200 37z m-484 -1326 c56 -30 89
-100 82 -173 -8 -83 -64 -139 -146 -147 -107 -10 -184 61 -184 168 0 107 72
175 178 166 28 -2 60 -8 70 -14z m1263 5 c85 -30 126 -150 82 -241 -29 -60
-89 -90 -165 -84 -93 8 -149 72 -148 170 1 123 112 197 231 155z"/>
<path d="M4208 4234 c-18 -6 -37 -12 -43 -14 -30 -8 -61 -23 -102 -51 -240
-165 -274 -492 -73 -698 227 -232 614 -174 756 114 41 84 55 152 48 236 -14
164 -111 307 -257 379 -101 49 -243 64 -329 34z"/>
</g>
</svg>
