<svg width="1400" height="732" viewBox="0 0 1400 732" fill="none" xmlns="http://www.w3.org/2000/svg">
<rect width="1400" height="732" fill="#FFFFF8"/>
<path fill-rule="evenodd" clip-rule="evenodd" d="M622.5 212C612.289 212 602.497 216.056 595.276 223.276C588.056 230.497 584 240.289 584 250.5V481.5C584 491.711 588.056 501.503 595.276 508.724C602.497 515.944 612.289 520 622.5 520H776.5C786.711 520 796.503 515.944 803.724 508.724C810.944 501.503 815 491.711 815 481.5V250.5C815 240.289 810.944 230.497 803.724 223.276C796.503 216.056 786.711 212 776.5 212H622.5ZM699.5 481.5C704.605 481.5 709.502 479.472 713.112 475.862C716.722 472.252 718.75 467.355 718.75 462.25C718.75 457.145 716.722 452.248 713.112 448.638C709.502 445.028 704.605 443 699.5 443C694.395 443 689.498 445.028 685.888 448.638C682.278 452.248 680.25 457.145 680.25 462.25C680.25 467.355 682.278 472.252 685.888 475.862C689.498 479.472 694.395 481.5 699.5 481.5Z" fill="#F5B354"/>
<path d="M831.133 518.167L837.296 370.07L818.772 367.342C817.083 367.093 815.376 366.984 813.668 367.016L787.989 367.502L786.095 367.538C770.405 367.835 756.715 378.261 752.259 393.308L742.013 427.901C739.844 435.221 741.03 443.126 745.25 449.488C747.962 453.577 749.451 458.354 749.544 463.26L750.216 498.741L750.517 514.617C750.802 529.707 761.913 542.398 776.832 544.676L795.481 547.523C813.736 550.31 830.365 536.618 831.133 518.167Z" fill="#FFFFF8"/>
<path fill-rule="evenodd" clip-rule="evenodd" d="M894.5 433.711C899 433.711 899 433.705 899 433.705V433.531L898.994 433.456L898.97 433.018C898.935 432.523 898.885 432.028 898.82 431.536C898.546 429.59 898.18 427.658 897.725 425.746C896.513 420.484 894.128 412.177 889.442 399.67C886.874 392.815 880.892 387.652 873.308 386.812C865.433 385.939 852.17 385 831.5 385C810.83 385 797.567 385.939 789.692 386.812C782.108 387.652 776.129 392.815 773.558 399.67C768.872 412.177 766.487 420.484 765.275 425.746C764.821 427.658 764.457 429.59 764.183 431.536C764.097 432.173 764.037 432.814 764.003 433.456V433.663L764 433.687V433.705C764 433.705 764 433.711 768.5 433.711H764C763.993 439.056 766.099 444.187 769.859 447.985V470.074C769.859 483.256 770.39 493.141 770.987 500.095C771.89 510.61 780.251 518.302 790.529 518.932C799.265 519.466 812.699 520 831.503 520C850.307 520 863.741 519.466 872.477 518.932C882.755 518.302 891.116 510.61 892.019 500.092C892.619 493.141 893.147 483.256 893.147 470.074V447.979C896.904 444.181 899.007 439.053 899 433.711H894.5ZM881.147 453.859C877.743 454.269 874.291 453.805 871.116 452.511C867.941 451.217 865.148 449.136 863 446.464C859.289 451.06 853.616 454 847.25 454C840.884 454 835.211 451.06 831.5 446.464C827.789 451.06 822.116 454 815.75 454C809.384 454 803.711 451.06 800 446.464C797.852 449.135 795.06 451.215 791.887 452.509C788.713 453.803 785.262 454.267 781.859 453.859V470.074C781.859 482.935 782.378 492.475 782.942 499.066C783.317 503.401 786.662 506.674 791.264 506.956C795.614 507.22 801.2 507.49 808.124 507.688C808.088 505.198 808.07 502.426 808.07 499.348C808.07 488.908 808.292 482.002 808.541 477.559C808.799 472.927 811.511 469.084 816.077 468.265C819.518 467.65 824.486 467.137 831.497 467.137C838.508 467.137 843.476 467.647 846.917 468.265C851.483 469.084 854.195 472.927 854.453 477.559C854.702 482.002 854.927 488.911 854.927 499.351C854.927 502.423 854.909 505.202 854.873 507.688C860.5 507.534 866.123 507.289 871.742 506.953C876.341 506.671 879.692 503.401 880.064 499.066C880.628 492.475 881.147 482.935 881.147 470.074V453.859Z" fill="#F5B354"/>
</svg>
