<svg width="1400" height="732" viewBox="0 0 1400 732" fill="none" xmlns="http://www.w3.org/2000/svg">
<rect width="1400" height="732" fill="#FFFFF8"/>
<path d="M777 289H730.8C722.33 289 715.4 295.93 715.4 304.4C715.4 312.87 722.33 319.8 730.8 319.8H777C802.41 319.8 823.2 340.59 823.2 366C823.2 391.41 802.41 412.2 777 412.2H730.8C722.33 412.2 715.4 419.13 715.4 427.6C715.4 436.07 722.33 443 730.8 443H777C819.504 443 854 408.504 854 366C854 323.496 819.504 289 777 289ZM638.4 366C638.4 374.47 645.33 381.4 653.8 381.4H746.2C754.67 381.4 761.6 374.47 761.6 366C761.6 357.53 754.67 350.6 746.2 350.6H653.8C645.33 350.6 638.4 357.53 638.4 366ZM669.2 412.2H623C597.59 412.2 576.8 391.41 576.8 366C576.8 340.59 597.59 319.8 623 319.8H669.2C677.67 319.8 684.6 312.87 684.6 304.4C684.6 295.93 677.67 289 669.2 289H623C580.496 289 546 323.496 546 366C546 408.504 580.496 443 623 443H669.2C677.67 443 684.6 436.07 684.6 427.6C684.6 419.13 677.67 412.2 669.2 412.2Z" fill="#F5B354"/>
</svg>
