<svg width="1400" height="732" viewBox="0 0 1400 732" fill="none" xmlns="http://www.w3.org/2000/svg">
<rect width="1400" height="732" fill="#FFFFF8"/>
<path d="M580.571 228C565.568 228 551.179 233.948 540.569 244.535C529.96 255.122 524 269.482 524 284.455V303.273H876V284.455C876 269.482 870.04 255.122 859.431 244.535C848.821 233.948 834.432 228 819.429 228H580.571ZM524 447.545V328.364H876V447.545C876 462.518 870.04 476.878 859.431 487.465C848.821 498.052 834.432 504 819.429 504H580.571C565.568 504 551.179 498.052 540.569 487.465C529.96 476.878 524 462.518 524 447.545ZM762.857 403.636C759.523 403.636 756.325 404.958 753.968 407.311C751.61 409.664 750.286 412.855 750.286 416.182C750.286 419.509 751.61 422.7 753.968 425.053C756.325 427.406 759.523 428.727 762.857 428.727H800.571C803.906 428.727 807.103 427.406 809.461 425.053C811.818 422.7 813.143 419.509 813.143 416.182C813.143 412.855 811.818 409.664 809.461 407.311C807.103 404.958 803.906 403.636 800.571 403.636H762.857Z" fill="#F5B354"/>
</svg>
