<svg width="1400" height="732" viewBox="0 0 1400 732" fill="none" xmlns="http://www.w3.org/2000/svg">
<rect width="1400" height="732" fill="#FFFFF8"/>
<path fill-rule="evenodd" clip-rule="evenodd" d="M622.5 212C612.289 212 602.497 216.056 595.276 223.276C588.056 230.497 584 240.289 584 250.5V481.5C584 491.711 588.056 501.503 595.276 508.724C602.497 515.944 612.289 520 622.5 520H776.5C786.711 520 796.503 515.944 803.724 508.724C810.944 501.503 815 491.711 815 481.5V250.5C815 240.289 810.944 230.497 803.724 223.276C796.503 216.056 786.711 212 776.5 212H622.5ZM699.5 481.5C704.605 481.5 709.502 479.472 713.112 475.862C716.722 472.252 718.75 467.355 718.75 462.25C718.75 457.145 716.722 452.248 713.112 448.638C709.502 445.028 704.605 443 699.5 443C694.395 443 689.498 445.028 685.888 448.638C682.278 452.248 680.25 457.145 680.25 462.25C680.25 467.355 682.278 472.252 685.888 475.862C689.498 479.472 694.395 481.5 699.5 481.5Z" fill="#F5B354"/>
<path d="M832.441 357L770 393.051C760.409 398.589 754.5 408.823 754.5 419.898V484.092C754.5 494.356 759.581 503.955 768.068 509.727L784.01 520.567C804.591 534.562 832.441 519.82 832.441 494.932V357Z" fill="#FFFFF8"/>
<path d="M886.311 429.092C886.309 427.04 885.767 425.024 884.74 423.248C883.713 421.471 882.237 419.996 880.46 418.97L839.506 395.568C837.727 394.541 835.709 394 833.655 394C831.601 394 829.584 394.541 827.805 395.568L786.851 418.97C785.074 419.996 783.598 421.471 782.571 423.248C781.544 425.024 781.002 427.04 781 429.092V475.896C781.002 477.948 781.544 479.964 782.571 481.74C783.598 483.517 785.074 484.992 786.851 486.018L827.805 509.42C829.584 510.447 831.601 510.988 833.655 510.988C835.709 510.988 837.727 510.447 839.506 509.42L880.46 486.018C882.237 484.992 883.713 483.517 884.74 481.74C885.767 479.964 886.309 477.948 886.311 475.896V429.092Z" stroke="#F5B354" stroke-width="18" stroke-linecap="round" stroke-linejoin="round"/>
<path d="M782.758 423.241L833.658 452.494M833.658 452.494L884.558 423.241M833.658 452.494V511" stroke="#F5B354" stroke-width="18" stroke-linecap="round" stroke-linejoin="round"/>
</svg>
