<svg width="1400" height="732" viewBox="0 0 1400 732" fill="none" xmlns="http://www.w3.org/2000/svg">
<rect width="1400" height="732" fill="#FFFFF8"/>
<path d="M580.222 520C570.811 520 562.757 516.652 556.061 509.956C549.365 503.26 546.011 495.2 546 485.778V271.889C546 267.896 546.645 264.115 547.934 260.544C549.223 256.974 551.145 253.626 553.7 250.5L577.656 221.411C580.222 218.274 583.148 215.919 586.434 214.344C589.719 212.77 593.352 211.989 597.333 212H802.667C806.659 212 810.298 212.787 813.583 214.361C816.869 215.936 819.789 218.286 822.344 221.411L846.3 250.5C848.867 253.637 850.794 256.991 852.083 260.561C853.372 264.132 854.011 267.908 854 271.889V485.778C854 495.189 850.652 503.248 843.956 509.956C837.259 516.663 829.2 520.011 819.778 520H580.222ZM587.067 263.333H812.933L798.389 246.222H601.611L587.067 263.333ZM754.755 391.667L731.228 415.194C727.805 418.617 726.094 422.752 726.094 427.6C726.094 432.448 727.805 436.583 731.228 440.006C734.65 443.428 738.785 445.139 743.633 445.139C748.481 445.139 752.617 443.428 756.039 440.006L792.4 403.644C795.822 400.222 797.533 396.23 797.533 391.667C797.533 387.104 795.822 383.111 792.4 379.689L756.039 343.328C752.617 339.906 748.481 338.195 743.633 338.195C738.785 338.195 734.65 339.906 731.228 343.328C727.805 346.75 726.094 350.885 726.094 355.733C726.094 360.582 727.805 364.717 731.228 368.139L754.755 391.667ZM646.1 391.667L669.628 368.139C673.05 364.717 674.761 360.582 674.761 355.733C674.761 350.885 673.05 346.75 669.628 343.328C666.206 339.906 662.07 338.195 657.222 338.195C652.374 338.195 648.239 339.906 644.817 343.328L608.456 379.689C605.033 383.111 603.322 387.104 603.322 391.667C603.322 396.23 605.033 400.222 608.456 403.644L644.817 440.006C648.239 443.428 652.374 445.139 657.222 445.139C662.07 445.139 666.206 443.428 669.628 440.006C673.05 436.583 674.761 432.448 674.761 427.6C674.761 422.752 673.05 418.617 669.628 415.194L646.1 391.667Z" fill="#F5B354"/>
<rect x="572" y="308" width="256" height="177" fill="#F5B354"/>
<rect x="645" y="321" width="109" height="23" rx="11.5" fill="#FFFFF8"/>
<path d="M769 440V456C769 477.539 786.461 495 808 495H967C988.539 495 1006 477.539 1006 456V440C1006 418.461 988.539 401 967 401H808C786.461 401 769 418.461 769 440Z" fill="#FFFFF8"/>
<path d="M801 458V552H1038V458H801Z" fill="#FFFFF8"/>
<path d="M839.5 510H878.875C887.13 510 895.047 506.721 900.884 500.884C906.721 495.047 910 487.13 910 478.875C910 470.62 906.721 462.703 900.884 456.866C895.047 451.029 887.13 447.75 878.875 447.75H803.929M818.75 427L798 447.75L818.75 468.5" stroke="#F5B354" stroke-width="18" stroke-linecap="round" stroke-linejoin="round"/>
</svg>
